<svg width="100" height="100" viewBox="0 0 100 100" fill="none" xmlns="http://www.w3.org/2000/svg">
<path d="M0 16.6667C0 7.46193 7.46192 2.18557e-06 16.6667 2.18557e-06V100C7.46192 100 0 92.5381 0 83.3333V16.6667Z" fill="white"/>
<path d="M33.3333 66.6667C42.5381 66.6667 50 74.1286 50 83.3333V100H33.3333V66.6667Z" fill="#2597D8"/>
<path d="M66.6667 50H83.3333V83.3333H66.6667V50Z" fill="#2597D8"/>
<path d="M83.3333 83.3333C83.3333 92.5381 75.8714 100 66.6667 100H50V83.3333H83.3333Z" fill="#2597D8"/>
<path d="M83.3333 1.45705e-06C92.5381 1.8594e-06 100 7.46192 100 16.6667L50 16.6667V0L83.3333 1.45705e-06Z" fill="#2597D8"/>
<path d="M33.3333 2.18557e-06V16.6667H16.6667V2.18557e-06H33.3333Z" fill="white"/>
<path d="M83.3333 16.6667V33.3333L66.6667 33.3333V16.6667H83.3333Z" fill="#2597D8"/>
<path d="M41.6667 33.3333C46.269 33.3333 50 37.0643 50 41.6667C50 46.269 46.269 50 41.6667 50L33.3333 50V33.3333L41.6667 33.3333Z" fill="white"/>
</svg>
